<svg xmlns="http://www.w3.org/2000/svg" fill="none" viewBox="0 0 89 23">
  <path fill="#000" d="M10.778 22.4c-1.452 0-2.815-.267-4.09-.8a10.842 10.842 0 0 1-3.355-2.245 10.456 10.456 0 0 1-2.266-3.31c-.534-1.26-.8-2.608-.8-4.045 0-1.437.266-2.785.8-4.044a10.458 10.458 0 0 1 2.266-3.312A10.528 10.528 0 0 1 6.69 2.422a10.235 10.235 0 0 1 4.089-.822c1.363 0 2.644.237 3.844.711a10.167 10.167 0 0 1 3.222 2l-.933 3.867c-.607-1.008-1.444-1.83-2.511-2.467-1.052-.652-2.237-.978-3.556-.978-1.333 0-2.54.326-3.622.978a7.348 7.348 0 0 0-2.555 2.622C4.044 9.43 3.733 10.652 3.733 12c0 1.333.311 2.556.934 3.667a7.349 7.349 0 0 0 2.555 2.622c1.082.652 2.289.978 3.622.978 1.319 0 2.504-.326 3.556-.978 1.067-.652 1.904-1.474 2.511-2.467l.933 3.867a10.727 10.727 0 0 1-3.222 2c-1.2.474-2.481.711-3.844.711ZM25.02 22.267a6.219 6.219 0 0 1-3.333-.934 7.031 7.031 0 0 1-2.422-2.51c-.593-1.053-.889-2.216-.889-3.49s.296-2.437.89-3.489a7.032 7.032 0 0 1 2.421-2.51 6.22 6.22 0 0 1 3.334-.934c.889 0 1.71.163 2.466.489.77.311 1.43.755 1.978 1.333V8.667h2.778V22h-2.778v-1.556a5.972 5.972 0 0 1-1.978 1.334 6.162 6.162 0 0 1-2.466.489Zm.4-2.8c.741 0 1.415-.185 2.023-.556a4.039 4.039 0 0 0 1.466-1.489c.37-.622.556-1.318.556-2.089 0-.755-.185-1.444-.555-2.066a4.044 4.044 0 0 0-1.445-1.511 3.85 3.85 0 0 0-2.044-.556c-.741 0-1.423.185-2.045.556a4.278 4.278 0 0 0-1.466 1.488c-.356.623-.534 1.319-.534 2.09 0 .755.178 1.451.534 2.088.37.622.859 1.119 1.466 1.49.608.37 1.29.555 2.045.555ZM34.575 22V.667h3.133V22h-3.133ZM46.387 22.356c-1.319 0-2.519-.312-3.6-.934a7.223 7.223 0 0 1-2.578-2.555c-.637-1.067-.955-2.245-.955-3.534 0-1.303.318-2.481.955-3.533a7.046 7.046 0 0 1 2.578-2.533c1.081-.637 2.282-.956 3.6-.956.933 0 1.815.163 2.645.489a6.739 6.739 0 0 1 2.222 1.333l-.867 3.49c-.37-.667-.896-1.238-1.578-1.712-.681-.489-1.466-.733-2.355-.733-.77 0-1.474.192-2.111.577a4.217 4.217 0 0 0-1.49 1.49c-.355.622-.533 1.318-.533 2.088 0 .756.178 1.452.534 2.09.37.621.866 1.125 1.489 1.51.637.37 1.34.556 2.11.556.89 0 1.675-.237 2.356-.711a5.022 5.022 0 0 0 1.578-1.734l.867 3.49a7.052 7.052 0 0 1-2.222 1.355 7.47 7.47 0 0 1-2.645.467ZM52.452 22V8.667h3.134V22h-3.134ZM54.03 6.511c-.519 0-.956-.178-1.311-.533a1.83 1.83 0 0 1-.534-1.311c0-.534.178-.97.534-1.311a1.83 1.83 0 0 1 1.31-.534c.534 0 .971.178 1.312.534.356.355.533.792.533 1.31 0 .52-.177.956-.533 1.312a1.782 1.782 0 0 1-1.311.533ZM59.487 22V11.2H56.73V8.667h2.822v-3.6c0-1.526.445-2.682 1.334-3.467.889-.8 1.97-1.2 3.244-1.2.474 0 .94.06 1.4.178.474.103.904.274 1.29.51l-.668 2.734c-.518-.607-1.133-.91-1.844-.91-.43 0-.83.147-1.2.444-.37.296-.556.859-.556 1.688v3.623h2.978V11.2h-2.91V22h-3.134ZM72.617 22.356c-1.437 0-2.718-.312-3.844-.934a6.854 6.854 0 0 1-2.645-2.555c-.622-1.082-.933-2.304-.933-3.667 0-1.304.304-2.474.911-3.511a6.967 6.967 0 0 1 2.489-2.467c1.052-.607 2.207-.91 3.467-.91 1.274 0 2.422.295 3.444.888a6.67 6.67 0 0 1 2.467 2.422c.607 1.008.91 2.156.91 3.445v1.177h-8.421c-.37 0-.741-.014-1.112-.044a28.63 28.63 0 0 1-1.11-.156 4.213 4.213 0 0 0 1.466 2.556c.815.681 1.807 1.022 2.978 1.022.844 0 1.615-.178 2.31-.533a5.208 5.208 0 0 0 1.712-1.422l.756 3.11a6.951 6.951 0 0 1-2.223 1.178c-.83.267-1.703.4-2.622.4Zm-4.444-8.312c.77-.148 1.533-.222 2.289-.222h3.377c.37 0 .726.015 1.067.045.356.03.696.066 1.022.11a3.919 3.919 0 0 0-1.4-2.2c-.696-.577-1.526-.866-2.489-.866a3.74 3.74 0 0 0-2.466.889 4.134 4.134 0 0 0-1.4 2.244ZM80.277 22V8.667h2.845v2.355A5.361 5.361 0 0 1 84.944 9.2c.74-.444 1.622-.667 2.644-.667l.712 2.911a3.169 3.169 0 0 0-.956-.133c-1.185 0-2.14.378-2.867 1.133-.71.756-1.066 1.837-1.066 3.245V22h-3.134Z"/>
</svg>
